HIERARCHY
ROOT Hips
{
  OFFSET 279.157 85.6768 304.565
  CHANNELS 6 Xposition Yposition Zposition Zrotation Xrotation Yrotation
  JOINT LeftUpLeg
  {
    OFFSET 8.64259 1.95398 -2.38835
    CHANNELS 3 Zrotation Xrotation Yrotation
    JOINT LeftLeg
    {
      OFFSET 43.7702 0 0
      CHANNELS 3 Zrotation Xrotation Yrotation
      JOINT LeftFoot
      {
        OFFSET 40.6238 0 0
        CHANNELS 3 Zrotation Xrotation Yrotation
        JOINT LeftToeBase
        {
          OFFSET 12.7242 0 0
          CHANNELS 3 Zrotation Xrotation Yrotation
          End Site
          {
            OFFSET 0 0 0
          }
        }
      }
    }
  }
  JOINT RightUpLeg
  {
    OFFSET -8.2249 1.95398 -2.59336
    CHANNELS 3 Zrotation Xrotation Yrotation
    JOINT RightLeg
    {
      OFFSET 43.5653 0 0
      CHANNELS 3 Zrotation Xrotation Yrotation
      JOINT RightFoot
      {
        OFFSET 40.6238 0 0
        CHANNELS 3 Zrotation Xrotation Yrotation
        JOINT RightToeBase
        {
          OFFSET 12.7242 0 0
          CHANNELS 3 Zrotation Xrotation Yrotation
          End Site
          {
            OFFSET 0 0 0
          }
        }
      }
    }
  }
  JOINT Spine
  {
    OFFSET 0.165834 0.87714 6.61349
    CHANNELS 3 Zrotation Xrotation Yrotation
    JOINT Spine1
    {
      OFFSET 7.38963 1.71661e-005 0
      CHANNELS 3 Zrotation Xrotation Yrotation
      JOINT Spine2
      {
        OFFSET 11.9445 1.14441e-005 0
        CHANNELS 3 Zrotation Xrotation Yrotation
        JOINT Spine3
        {
          OFFSET 14.7254 4.19617e-005 0
          CHANNELS 3 Zrotation Xrotation Yrotation
          JOINT Spine4
          {
            OFFSET 10.9679 0 0
            CHANNELS 3 Zrotation Xrotation Yrotation
            JOINT RightShoulder
            {
              OFFSET 2.46616 -1.6653 3.69651
              CHANNELS 3 Zrotation Xrotation Yrotation
              JOINT RightArm
              {
                OFFSET 13.0012 0 0
                CHANNELS 3 Zrotation Xrotation Yrotation
                JOINT RightForeArm
                {
                  OFFSET 28.7848 1.52588e-005 0
                  CHANNELS 3 Zrotation Xrotation Yrotation
                  JOINT RightHand
                  {
                    OFFSET 26.5688 1.52588e-005 0
                    CHANNELS 3 Zrotation Xrotation Yrotation
                    End Site
                    {
                      OFFSET 0 0 0
                    }
                  }
                }
              }
            }
            JOINT LeftShoulder
            {
              OFFSET 2.38034 -1.29275 -3.7523
              CHANNELS 3 Zrotation Xrotation Yrotation
              JOINT LeftArm
              {
                OFFSET 16.3182 6.10351e-005 0
                CHANNELS 3 Zrotation Xrotation Yrotation
                JOINT LeftForeArm
                {
                  OFFSET 27.0901 0 0
                  CHANNELS 3 Zrotation Xrotation Yrotation
                  JOINT LeftHand
                  {
                    OFFSET 24.5451 1.52588e-005 0
                    CHANNELS 3 Zrotation Xrotation Yrotation
                    End Site
                    {
                      OFFSET 0 0 0
                    }
                  }
                }
              }
            }
            JOINT Neck
            {
              OFFSET 5.0226 -0.0266342 0
              CHANNELS 3 Zrotation Xrotation Yrotation
              JOINT Head
              {
                OFFSET 6.69364 2.86102e-005 0
                CHANNELS 3 Zrotation Xrotation Yrotation
                End Site
                {
                  OFFSET 0 0 0
                }
              }
            }
          }
        }
      }
    }
  }
}
MOTION
Frames:	13
Frame Time:	0.0416667
-3.60504 100.368 88.571 -138.478 -81.2828 -139.44 -176.88 0.373487 83.5479 -22.0438 17.8674 -0.338473 73.0084 9.54723 1.62057 12.0739 -11.7831 5.82151 177.991 16.967 89.1135 -49.9459 -3.06248 -4.09639 70.7348 -6.88939 -4.9557 17.0391 2.64875 5.94539 0.410702 8.04561 -89.9533 10.7828 0.839413 0.0150804 -0.887834 0.839264 -0.021892 -23.425 0.796063 0.266674 -3.41235 0.796076 0.26668 87.5802 -29.197 -111.884 42.5999 -9.56845 -0.87406 5.68574 -22.6891 -9.12725 -24.6824 -1.02922 -5.49104 -87.8592 -49.9414 81.9248 -7.5961 0.538281 -26.6813 8.42796 30.212 -14.3045 0.436012 -0.0662466 -3.37925 -8.01395 0.969173 -4.4731 -2.1728 1.28522 -2.50143 
-5.16754 100.252 93.8227 -161.18 -82.9909 -160.747 -175.77 -3.46054 86.2421 -22.1225 22.2817 0.643277 75.9549 11.3895 1.83262 10.2065 -12.9708 5.75914 178.318 18.043 90.7269 -32.8853 -4.59912 -2.69418 67.5833 -5.13969 -3.38594 19.1583 2.5271 3.67632 -0.0939188 8.06895 -90.1623 10.7354 -0.261813 -0.298477 -0.935559 -0.274704 -0.286672 -23.4706 -0.160006 -0.363368 -3.45792 -0.160006 -0.363364 87.7177 -29.847 -111.319 42.3697 -8.26845 2.79103 6.43458 -21.6842 -9.22702 -23.9964 -0.823872 -6.33233 -88.3813 -45.3375 80.2352 -8.62638 -1.55398 -32.6981 11.0326 26.2727 -17.5024 2.5694 -0.126333 -5.09787 -8.05576 1.16784 -6.76601 -2.22052 1.63617 0.0536066 
-6.57316 99.4314 99.7729 -177.096 -82.8809 -176.009 -173.708 -8.0233 89.2453 -21.9212 25.5598 0.541319 79.1893 13.2025 0.642183 13.3413 -11.9945 8.16454 177.618 16.1115 91.8566 -13.9301 -8.51208 -0.731615 63.4094 -3.30005 -2.00561 22.6491 1.24885 4.65247 -0.431583 8.12493 -90.2729 10.6218 -0.985038 -0.453569 -1.04887 -1.00405 -0.409779 -23.5856 -0.803185 -0.728655 -3.57293 -0.803184 -0.728652 87.6168 -31.1515 -110.939 41.5782 -7.53627 5.54287 5.89484 -22.138 -9.01195 -24.0113 -0.767505 -6.7949 -89.0056 -43.9467 78.9406 -8.69767 -4.42544 -37.7462 13.9911 24.9837 -21.3128 6.42129 -0.306211 -7.17972 -7.72293 1.38368 -8.52087 -2.6699 1.99006 1.74351 
-8.06186 97.9444 106.331 -177.871 -82.3538 -176.041 -171.064 -13.2324 92.5521 -21.3271 27.2252 0.108027 82.7977 15.9292 0.513823 14.5852 -11.2291 8.33919 178.177 16.5259 93.9266 -7.50391 -8.99033 0.162946 64.0298 -3.32353 -2.0025 23.618 0.954282 4.64181 -0.590738 8.16536 -90.3401 10.5398 -1.3328 -0.556633 -1.13057 -1.35601 -0.49743 -23.6688 -1.1039 -0.931493 -3.65617 -1.10389 -0.931488 87.3319 -33.4866 -110.493 40.1223 -7.19667 6.86967 6.42826 -22.4473 -8.4515 -22.8448 -0.826108 -6.58508 -89.1154 -44.0488 78.7862 -11.5891 -7.29487 -41.0612 18.1644 24.5602 -26.6333 7.63397 -0.493681 -8.97793 -7.77486 1.83449 -9.6987 -2.71363 2.51224 2.79236 
-9.52453 96.3876 113.786 -179.914 -81.9296 -176.71 -168.118 -17.7047 96.6528 -22.3882 27.7067 0.331834 85.6061 18.0211 0.287353 14.148 -11.4236 8.10923 178.92 15.2546 96.3839 -8.23453 -9.53846 0.838409 61.5845 -2.36983 -1.35629 24.0099 1.04824 3.41464 -0.763768 8.12141 -90.5198 10.6242 -1.76019 -0.873737 -1.04577 -1.79694 -0.7954 -23.5853 -1.41624 -1.36239 -3.57265 -1.41624 -1.36239 87.488 -34.2091 -109.906 40.2756 -5.18032 8.12694 5.82465 -23.3586 -8.17558 -20.4234 -0.769385 -7.39182 -88.9396 -45.5887 79.4052 -15.6369 -7.916 -41.6094 21.3986 25.0457 -30.9558 7.78834 -0.681079 -11.0052 -7.91564 2.44329 -8.5634 -3.23591 3.02391 2.19533 
-10.7002 95.8752 122.066 -179.13 -81.4586 -174.488 -167.237 -21.1939 98.596 -24.256 26.3136 2.34884 78.6565 13.3661 1.39442 24.727 -5.21593 10.5362 178.668 18.461 98.4596 -21.0222 -10.1435 1.19885 60.287 0.202553 -2.66691 19.692 2.12728 4.76738 -0.893991 7.99922 -90.7133 10.8642 -2.10953 -1.2206 -0.805514 -2.16121 -1.12655 -23.3453 -1.64521 -1.79819 -3.33267 -1.64521 -1.7982 87.9182 -34.3348 -109.063 41.1793 -3.99454 8.51013 6.1094 -22.8804 -7.45901 -19.283 -0.710188 -7.7978 -89.1392 -47.5486 79.5121 -16.8889 -5.12649 -37.7694 21.5519 27.0926 -31.4937 7.34657 -0.561776 -9.90941 -8.61344 2.85436 -6.85545 -4.06664 3.26216 2.21333 
-11.7029 95.8656 130.125 -172.526 -80.5741 -166.354 -167.635 -19.2784 99.303 -34.6127 24.4006 4.20031 67.7671 5.3363 1.25294 31.0597 -1.0538 10.6976 178.129 17.0781 100.359 -28.9661 -9.42941 2.09726 62.1007 -0.65411 -2.21842 16.8763 3.15558 4.04402 -0.785436 7.9158 -90.9537 11.0245 -2.00554 -1.70583 -0.645923 -2.07866 -1.61591 -23.1789 -1.40029 -2.22958 -3.16623 -1.40029 -2.22958 87.8841 -33.6788 -109.385 41.8386 -3.74885 8.15724 6.14769 -22.4703 -7.09242 -17.7932 -0.584954 -8.80612 -89.3874 -49.0024 79.4385 -16.9165 1.12451 -33.0835 15.3437 29.957 -23.7983 3.946 -0.351628 -9.11889 -9.77757 2.97198 -3.94629 -4.04627 3.17632 0.950777 
-12.8086 96.3629 136.566 -173.01 -79.6626 -166.181 -168.57 -9.99278 100.977 -50.3914 25.8869 4.88426 53.3304 -4.43274 -2.56169 17.6885 -8.11304 5.68015 177.938 13.1296 101.573 -31.8447 -9.58846 2.52558 66.3868 -3.51469 -3.14167 17.65 2.7866 4.59051 -0.655565 8.02156 -91.0383 10.8124 -1.78461 -1.89906 -0.858563 -1.86645 -1.8187 -23.3873 -1.13154 -2.34744 -3.37468 -1.13153 -2.34743 87.3776 -33.3231 -110.471 41.1869 -4.50006 5.29451 6.06813 -22.5347 -7.16999 -17.9886 -0.503834 -9.46334 -89.5229 -49.5079 79.3393 -17.515 6.36836 -31.7481 3.51319 35.4536 -7.62052 -3.73126 -0.0217259 -10.3282 -8.95424 2.91913 -2.21928 -4.3021 3.05458 0.187095 
-13.4584 97.1812 142.303 -176.507 -79.9322 -170.207 -170.884 1.37358 99.6911 -62.5167 21.5482 4.86298 57.5336 -1.64843 -1.85477 15.7532 -9.55951 6.18693 177.408 8.38413 100.94 -30.4088 -9.93821 2.91309 69.0327 -5.25641 -3.33479 19.3293 2.27557 4.56173 -0.424625 8.07908 -90.9802 10.7019 -1.29718 -1.83013 -0.96963 -1.37647 -1.77129 -23.4963 -0.687322 -2.13525 -3.48368 -0.68733 -2.13525 87.1796 -32.7965 -111.063 39.5838 -6.28101 1.05299 5.90986 -22.8464 -8.11293 -20.5602 -0.559007 -8.66635 -89.9438 -50.6087 78.9413 -19.6037 8.89154 -25.405 -3.09747 35.5134 -0.00569213 -1.61677 -0.095646 -5.14747 -8.08809 2.29758 -1.41345 -3.9035 2.39521 -0.0182156 
-13.8665 98.1701 147.66 -169.01 -80.5678 -164.512 -172.791 10.8311 95.8077 -62.9466 12.7319 3.66152 66.8347 4.93771 1.35236 13.0246 -10.8046 4.99633 177.231 3.38129 99.1921 -26.7446 -11.4933 2.18072 70.7698 -6.27864 -2.80661 20.8458 1.8596 4.3211 0.0176621 8.05393 -90.7733 10.763 -0.321536 -1.50812 -0.90879 -0.387587 -1.49252 -23.4369 0.146516 -1.53503 -3.42421 0.146527 -1.53502 86.9982 -32.1275 -111.692 36.673 -8.04038 -3.15969 5.02914 -23.2151 -9.74155 -21.9266 -0.648456 -8.00393 -90.6735 -52.3877 78.2491 -21.6933 8.81859 -12.8731 -1.03177 32.2379 -3.52559 1.24778 -0.0743421 -3.79501 -8.10285 1.37077 -1.10204 -3.49571 1.44383 0.220181 
-14.027 98.9787 153.037 -150.631 -80.1155 -149.117 -174.123 16.5475 90.8821 -51.9619 -0.502593 1.80169 69.2336 6.81673 2.02324 9.92871 -12.4258 4.22381 176.87 -0.858332 96.3153 -24.5185 -14.8595 0.28012 72.1457 -6.90218 -2.60701 21.7301 1.75925 3.45025 0.619541 8.03345 -90.4394 10.8106 1.03083 -0.96995 -0.860389 0.987148 -1.01438 -23.3974 1.27467 -0.615291 -3.38473 1.27467 -0.615295 86.9615 -30.6002 -112.449 33.9583 -9.27135 -6.76698 4.37563 -24.6391 -11.4477 -24.8204 -0.890669 -6.80944 -89.8317 -53.2357 79.6464 -23.3187 10.0197 0.210424 1.23449 24.1497 -9.97524 2.15043 -0.118778 -4.98612 -8.28837 0.722444 1.25422 -2.9991 0.652535 -1.79272 
-13.8863 98.8227 158.85 -136.969 -79.2634 -137.086 -176.01 18.8388 88.2263 -34.5611 -1.4569 0.396184 66.5577 5.79573 1.86453 11.6291 -10.6262 2.57639 176.055 -4.19455 94.0172 -24.4951 -17.8841 -0.925856 74.9092 -8.40857 -2.87946 21.6946 1.78538 3.37185 1.09133 8.02898 -90.2872 10.8237 2.04044 -0.761326 -0.845912 2.00496 -0.850424 -23.3938 2.17488 -0.112625 -3.38111 2.17488 -0.112619 86.9341 -27.8387 -113.822 31.7639 -9.45462 -9.90666 3.24723 -24.8761 -13.7265 -25.3845 -0.935069 -6.6115 -88.725 -54.7976 81.5222 -23.5986 9.85777 10.1096 1.30035 18.7992 -12.2752 0.524054 -0.126587 -5.85564 -7.75697 0.353887 3.87734 -2.50984 0.0900161 -3.6632 
-13.9102 97.7791 165.443 -131.049 -78.7008 -131.871 -177.143 15.6256 86.722 -10.1363 3.83248 -0.81943 60.6771 3.29114 -1.24124 15.5536 -9.61576 6.00995 174.698 -8.27303 91.9414 -24.4066 -19.9743 -1.23306 78.1167 -10.2307 -2.77521 22.8434 1.38852 3.55631 1.35447 8.0263 -90.2441 10.8315 2.58418 -0.726665 -0.837142 2.5497 -0.839769 -23.393 2.68303 0.0841394 -3.38031 2.68302 0.0841295 87.4378 -26.2255 -113.608 28.2882 -10.2791 -14.2605 2.7536 -26.1395 -14.414 -25.6199 -0.779983 -7.81673 -88.4319 -55.9683 82.1392 -24.0275 7.23563 16.1752 0.153821 14.189 -8.4708 -0.443966 -0.0813432 -3.82359 -7.01517 0.135447 6.64021 -2.06158 -0.383993 -5.65223 
